<?xml version="1.0" encoding="UTF-8" standalone="no"?><svg
   xmlns:dc="http://purl.org/dc/elements/1.1/"
   xmlns:cc="http://creativecommons.org/ns#"
   xmlns:rdf="http://www.w3.org/1999/02/22-rdf-syntax-ns#"
   xmlns:svg="http://www.w3.org/2000/svg"
   xmlns="http://www.w3.org/2000/svg"
   xmlns:sodipodi="http://sodipodi.sourceforge.net/DTD/sodipodi-0.dtd"
   xmlns:inkscape="http://www.inkscape.org/namespaces/inkscape" width="24" height="20" x="0" y="0" style="opacity: 1;" class="stencil--easier-to-select"><defs></defs><rect x="0" y="0" width="24" height="20" fill="transparent" class="stencil__selection-helper"></rect><path d="M9.794285714285714 18.505436223813312C9.794285714285714 18.544329532396358 9.798095238095236 18.64545213471228 9.805714285714286 18.808804030761074 9.813333333333333 18.97215592680987 9.817142857142857 19.112171837708836 9.817142857142857 19.22885176345797 9.817142857142857 19.345531689207107 9.80190476190476 19.466100945814546 9.771428571428572 19.5905595332803 9.74095238095238 19.715018120746045 9.691428571428572 19.816140723061967 9.622857142857143 19.893927340228057 9.554285714285713 19.97171395739415 9.447619047619046 20.006717935118893 9.302857142857142 19.998939273402282 9.302857142857142 19.998939273402282 4.411428571428571 19.998939273402282 4.411428571428571 19.998939273402282 3.192380952380952 19.998939273402282 2.152380952380952 19.559444886413864 1.2914285714285711 18.68045611243702 0.43047619047619035 17.80146733846018 0 16.739680014143023 0 15.495094139485548 0 15.495094139485548 0 4.503845133916734 0 4.503845133916734 0 3.2592592592592586 0.43047619047619035 2.1974719349421026 1.2914285714285711 1.3184831609652612 2.152380952380952 0.4394943869884189 3.192380952380952-1.7763568394002505e-15 4.411428571428571 0 4.411428571428571 0 9.302857142857142 0 9.302857142857142 0 9.44 0 9.554285714285713 0.05056130115795998 9.645714285714284 0.15168390347387994 9.737142857142855 0.252806505789799 9.786666666666665 0.36948643153893723 9.794285714285714 0.5017236807212937 9.794285714285714 0.5406169893043398 9.798095238095236 0.6456289224785641 9.805714285714286 0.8167594802439666 9.813333333333333 0.9878900380093683 9.817142857142857 1.12401661805003 9.817142857142857 1.2251392203659517 9.817142857142857 1.3262618226818716 9.80190476190476 1.4468310792893142 9.771428571428572 1.5868469901882793 9.74095238095238 1.7268629010872436 9.691428571428572 1.831874834261468 9.622857142857143 1.9018827897109514 9.554285714285713 1.9718907451604348 9.447619047619046 2.0030053920268713 9.302857142857142 1.9952267303102627 9.302857142857142 1.9952267303102627 4.411428571428571 1.9952267303102627 4.411428571428571 1.9952267303102627 3.733333333333333 1.9952267303102627 3.154285714285714 2.240254574383452 2.674285714285714 2.7303102625298328 2.1942857142857135 3.2203659506762117 1.9542857142857137 3.8115442411385123 1.9542857142857142 4.503845133916734 1.9542857142857142 4.503845133916734 1.9542857142857142 15.495094139485548 1.9542857142857142 15.495094139485548 1.9542857142857142 16.18739503226377 2.194285714285714 16.77857332272607 2.674285714285714 17.26862901087245 3.154285714285714 17.75868469901883 3.733333333333333 18.003712543092018 4.411428571428571 18.003712543092018 4.411428571428571 18.003712543092018 8.811428571428571 18.003712543092018 8.811428571428571 18.003712543092018 8.811428571428571 18.003712543092018 8.982857142857142 18.003712543092018 8.982857142857142 18.003712543092018 8.982857142857142 18.003712543092018 9.188571428571427 18.003712543092018 9.188571428571427 18.003712543092018 9.188571428571427 18.003712543092018 9.245714285714286 18.007601873950325 9.36 18.015380535666935 9.474285714285713 18.023159197383546 9.53142857142857 18.038716520816763 9.53142857142857 18.062052505966587 9.53142857142857 18.085388491116415 9.57333333333333 18.11261380712455 9.657142857142857 18.143728453990985 9.740952380952379 18.174843100857423 9.775238095238093 18.22151507115708 9.759999999999998 18.28374436488995 9.744761904761903 18.345973658622825 9.756190476190474 18.41987094493061 9.794285714285714 18.505436223813312 9.794285714285714 18.505436223813312 9.794285714285714 18.505436223813312 9.794285714285714 18.505436223813312M24 9.999469636701141C24 10.271722796782463 23.9047619047619 10.505082648280737 23.71428571428571 10.69954919119597 23.71428571428571 10.69954919119597 15.382857142857143 19.205515778308143 15.382857142857143 19.205515778308143 15.192380952380951 19.39998232122337 14.963809523809523 19.497215592680988 14.697142857142856 19.497215592680988 14.430476190476188 19.497215592680988 14.198095238095236 19.39998232122337 14 19.205515778308143 13.801904761904762 19.01104923539291 13.706666666666667 18.777689383894636 13.714285714285714 18.505436223813312 13.714285714285714 18.505436223813312 13.714285714285714 14.001591089896579 13.714285714285714 14.001591089896579 13.714285714285714 14.001591089896579 6.857142857142857 14.001591089896579 6.857142857142857 14.001591089896579 6.59047619047619 14.001591089896579 6.3619047619047615 13.90046848758066 6.171428571428572 13.69822328294882 5.980952380952381 13.49597807831698 5.881904761904761 13.262618226818706 5.874285714285714 12.998143728453993 5.874285714285714 12.998143728453993 5.874285714285714 7.000795544948289 5.874285714285714 7.000795544948289 5.874285714285714 6.728542384866966 5.973333333333333 6.495182533368691 6.171428571428572 6.300715990453462 6.36952380952381 6.106249447538232 6.598095238095238 6.0051268452223105 6.857142857142857 5.997348183505702 6.857142857142857 5.997348183505702 13.714285714285714 5.997348183505702 13.714285714285714 5.997348183505702 13.714285714285714 5.997348183505702 13.714285714285714 1.493503049588968 13.714285714285714 1.493503049588968 13.714285714285714 1.2290285512242543 13.809523809523807 0.9956686997259787 14 0.7934234950941397 14.190476190476186 0.5911782904623006 14.42285714285714 0.493945019004685 14.697142857142856 0.5017236807212937 14.971428571428568 0.5095023424379024 15.199999999999998 0.606735613895518 15.382857142857143 0.7934234950941397 15.382857142857143 0.7934234950941397 23.71428571428571 9.299390082206312 23.71428571428571 9.299390082206312 23.9047619047619 9.493856625121541 24 9.727216476619818 24 9.999469636701141 24 9.999469636701141 24 9.999469636701141 24 9.999469636701141" stroke-width="0.5" stroke="rgb(122,122,122)" stroke-dasharray="none" fill="rgba(33,33,33,0.87)" fill-rule="evenOdd"></path></svg>