<?xml version="1.0" encoding="UTF-8" standalone="no"?>
<!-- Created with Inkscape (http://www.inkscape.org/) -->

<svg
   xmlns:dc="http://purl.org/dc/elements/1.1/"
   xmlns:cc="http://creativecommons.org/ns#"
   xmlns:rdf="http://www.w3.org/1999/02/22-rdf-syntax-ns#"
   xmlns:svg="http://www.w3.org/2000/svg"
   xmlns="http://www.w3.org/2000/svg"
   xmlns:sodipodi="http://sodipodi.sourceforge.net/DTD/sodipodi-0.dtd"
   xmlns:inkscape="http://www.inkscape.org/namespaces/inkscape"
   width="37.589214mm"
   height="8.5310555mm"
   viewBox="0 0 133.19013 30.228149"
   id="svg2"
   version="1.1"
   inkscape:version="0.91 r13725"
   sodipodi:docname="logo3-7.svg">
  <defs
     id="defs4">
    <marker
       inkscape:stockid="Arrow2Mend"
       orient="auto"
       refY="0"
       refX="0"
       id="Arrow2Mend"
       style="overflow:visible"
       inkscape:isstock="true">
      <path
         id="path5593"
         style="fill:#004b93;fill-opacity:1;fill-rule:evenodd;stroke:#004b93;stroke-width:0.625;stroke-linejoin:round;stroke-opacity:1"
         d="M 8.7185878,4.0337352 -2.2072895,0.01601326 8.7185884,-4.0017078 c -1.7454984,2.3720609 -1.7354408,5.6174519 -6e-7,8.035443 z"
         transform="scale(-0.6,-0.6)"
         inkscape:connector-curvature="0" />
    </marker>
    <marker
       inkscape:stockid="Arrow2Lend"
       orient="auto"
       refY="0"
       refX="0"
       id="marker6045"
       style="overflow:visible"
       inkscape:isstock="true">
      <path
         id="path6047"
         style="fill:#004b93;fill-opacity:1;fill-rule:evenodd;stroke:#004b93;stroke-width:0.625;stroke-linejoin:round;stroke-opacity:1"
         d="M 8.7185878,4.0337352 -2.2072895,0.01601326 8.7185884,-4.0017078 c -1.7454984,2.3720609 -1.7354408,5.6174519 -6e-7,8.035443 z"
         transform="matrix(-1.1,0,0,-1.1,-1.1,0)"
         inkscape:connector-curvature="0" />
    </marker>
    <marker
       inkscape:stockid="Arrow1Send"
       orient="auto"
       refY="0"
       refX="0"
       id="Arrow1Send"
       style="overflow:visible"
       inkscape:isstock="true">
      <path
         id="path5581"
         d="M 0,0 5,-5 -12.5,0 5,5 0,0 Z"
         style="fill:#004b93;fill-opacity:1;fill-rule:evenodd;stroke:#004b93;stroke-width:1pt;stroke-opacity:1"
         transform="matrix(-0.2,0,0,-0.2,-1.2,0)"
         inkscape:connector-curvature="0" />
    </marker>
    <marker
       style="overflow:visible"
       inkscape:stockid="InfiniteLineStart"
       id="InfiniteLineStart"
       refX="0"
       refY="0"
       orient="auto"
       inkscape:isstock="true">
      <g
         id="g5810"
         style="fill:#004b93;fill-opacity:1;stroke:#004b93;stroke-opacity:1"
         transform="translate(-13,0)">
        <circle
           id="circle5812"
           r="0.80000001"
           cy="0"
           cx="3"
           style="fill:#004b93;fill-opacity:1;stroke:#004b93;stroke-opacity:1" />
        <circle
           id="circle5814"
           r="0.80000001"
           cy="0"
           cx="6.5"
           style="fill:#004b93;fill-opacity:1;stroke:#004b93;stroke-opacity:1" />
        <circle
           id="circle5816"
           r="0.80000001"
           cy="0"
           cx="10"
           style="fill:#004b93;fill-opacity:1;stroke:#004b93;stroke-opacity:1" />
      </g>
    </marker>
    <marker
       inkscape:stockid="Arrow2Lend"
       orient="auto"
       refY="0"
       refX="0"
       id="Arrow2Lend"
       style="overflow:visible"
       inkscape:isstock="true">
      <path
         id="path5587"
         style="fill:#004b93;fill-opacity:1;fill-rule:evenodd;stroke:#004b93;stroke-width:0.625;stroke-linejoin:round;stroke-opacity:1"
         d="M 8.7185878,4.0337352 -2.2072895,0.01601326 8.7185884,-4.0017078 c -1.7454984,2.3720609 -1.7354408,5.6174519 -6e-7,8.035443 z"
         transform="matrix(-1.1,0,0,-1.1,-1.1,0)"
         inkscape:connector-curvature="0" />
    </marker>
    <marker
       inkscape:stockid="Arrow1Lend"
       orient="auto"
       refY="0"
       refX="0"
       id="Arrow1Lend"
       style="overflow:visible"
       inkscape:isstock="true">
      <path
         id="path5569"
         d="M 0,0 5,-5 -12.5,0 5,5 0,0 Z"
         style="fill:#004b93;fill-opacity:1;fill-rule:evenodd;stroke:#004b93;stroke-width:1pt;stroke-opacity:1"
         transform="matrix(-0.8,0,0,-0.8,-10,0)"
         inkscape:connector-curvature="0" />
    </marker>
    <pattern
       y="0"
       x="0"
       height="6"
       width="6"
       patternUnits="userSpaceOnUse"
       id="EMFhbasepattern" />
    <marker
       inkscape:stockid="Arrow2Mend"
       orient="auto"
       refY="0"
       refX="0"
       id="Arrow2Mend-5"
       style="overflow:visible"
       inkscape:isstock="true">
      <path
         inkscape:connector-curvature="0"
         id="path5593-3"
         style="fill:#004b93;fill-opacity:1;fill-rule:evenodd;stroke:#004b93;stroke-width:0.625;stroke-linejoin:round;stroke-opacity:1"
         d="M 8.7185878,4.0337352 -2.2072895,0.01601326 8.7185884,-4.0017078 c -1.7454984,2.3720609 -1.7354408,5.6174519 -6e-7,8.035443 z"
         transform="scale(-0.6,-0.6)" />
    </marker>
  </defs>
  <sodipodi:namedview
     id="base"
     pagecolor="#ffffff"
     bordercolor="#666666"
     borderopacity="1.0"
     inkscape:pageopacity="0.0"
     inkscape:pageshadow="2"
     inkscape:zoom="5.6568543"
     inkscape:cx="16.860169"
     inkscape:cy="24.736387"
     inkscape:document-units="px"
     inkscape:current-layer="g4816"
     showgrid="true"
     inkscape:window-width="2560"
     inkscape:window-height="1381"
     inkscape:window-x="-8"
     inkscape:window-y="-8"
     inkscape:window-maximized="1"
     fit-margin-top="0.1"
     fit-margin-bottom="0.1"
     fit-margin-left="0.1"
     fit-margin-right="0.1"
     inkscape:snap-global="false"
     inkscape:snap-bbox="true"
     inkscape:snap-others="false">
    <inkscape:grid
       type="xygrid"
       id="grid5194"
       originx="-196.7861"
       originy="-791.94369" />
  </sodipodi:namedview>
  <metadata
     id="metadata7">
    <rdf:RDF>
      <cc:Work
         rdf:about="">
        <dc:format>image/svg+xml</dc:format>
        <dc:type
           rdf:resource="http://purl.org/dc/dcmitype/StillImage" />
        <dc:title></dc:title>
      </cc:Work>
    </rdf:RDF>
  </metadata>
  <g
     inkscape:label="Layer 1"
     inkscape:groupmode="layer"
     id="layer1"
     transform="translate(-196.7861,-230.19036)">
    <g
       id="g4816"
       transform="matrix(3.5433071,0,0,3.5433071,59.318,294.97358)">
      <path
         inkscape:connector-curvature="0"
         id="path4205"
         d="m 46.100274,-16.455163 c -0.498122,0 0.88646,-1.728102 1.524,-1.728102 3.326553,0 3.326553,0 3.326553,0 0.508,0 -0.88646,1.728102 -1.474046,1.728102 z"
         style="fill:#e62713;fill-opacity:1;fill-rule:nonzero;stroke:none" />
      <path
         inkscape:connector-curvature="0"
         id="path4207"
         d="m 39.277552,-18.183265 c 6.404469,0 6.404469,0 6.404469,0 0,7.741498 0,7.741498 0,7.741498 0,0.7192155 -2.02184,0.7192155 -2.02184,0 0,-6.013396 0,-6.013396 0,-6.013396 -4.382629,0 -4.382629,0 -4.382629,0 -0.508,0 -0.508,-1.728102 0,-1.728102 z"
         style="fill:#003391;fill-opacity:1;fill-rule:nonzero;stroke:none" />
      <path
         inkscape:connector-curvature="0"
         id="path4209"
         d="m 51.040574,-16.535077 c 0,-0.849066 0.966047,-1.648188 1.852507,-1.648188 8.515773,0 8.515773,0 8.515773,0 0.508,0 0.508,1.728102 0,1.728102 -7.83844,0 -7.83844,0 -7.83844,0 -0.25908,0 -0.508,0.0899 -0.508,0.639295 0,3.336344 0,3.336344 0,3.336344 0,0.339626 0.169333,0.63929 0.508,0.63929 7.83844,0 7.83844,0 7.83844,0 0.508,0 0.508,1.728103 0,1.728103 -8.515773,0 -8.515773,0 -8.515773,0 -0.88646,0 -1.852507,-0.669262 -1.852507,-1.55829 z"
         style="fill:#003391;fill-opacity:1;fill-rule:nonzero;stroke:none" />
      <path
         style="fill:#003391;fill-opacity:1;fill-rule:nonzero;stroke:none"
         d="M 105.38086 0.70703125 C 102.98343 0.23640211 98.215148 1.9583511 98.232422 4.0664062 L 98.232422 20.289062 L 106.72266 18.230469 L 106.72266 1.9746094 C 106.71522 1.2632621 106.18 0.86390763 105.38086 0.70703125 z "
         id="path4207-5"
         transform="matrix(0.28222222,0,0,0.28222222,38.796553,-18.283264)" />
      <path
         style="fill:#ffffff;fill-opacity:1;fill-rule:nonzero;stroke:none"
         d="m 68.915941,-13.118538 0,1.639517 c 0,0.719216 -2.396016,0.719217 -2.396016,0 l 0,-1.049214 c -0.0065,-0.793254 2.387457,-1.393335 2.396016,-0.590303 z"
         id="path4207-5-0-5-1-8" />
      <path
         inkscape:connector-curvature="0"
         id="path4207-5-0-5-1"
         d="m 68.915941,-12.647397 0,2.203962 c 0,0.7192158 -2.396016,0.7192163 -2.396016,0 l 0,-1.613658 c -0.0065,-0.793254 2.387457,-1.393335 2.396016,-0.590304 z"
         style="fill:#e62713;fill-opacity:1;fill-rule:nonzero;stroke:none"
         sodipodi:nodetypes="csscc" />
      <path
         style="fill:#003391;fill-opacity:1;fill-rule:nonzero;stroke:none"
         d="M 118.44531 0.6953125 C 116.04789 0.22468187 111.2796 1.9466306 111.29688 4.0546875 L 111.29688 12.609375 L 119.78711 10.519531 L 119.78711 1.9628906 C 119.77953 1.2515443 119.24445 0.85218938 118.44531 0.6953125 z "
         id="path4207-5-4"
         transform="matrix(0.28222222,0,0,0.28222222,38.796553,-18.283264)" />
      <path
         inkscape:connector-curvature="0"
         id="path4207-5-0-5-1-8-3"
         d="m 72.602876,-15.288598 0,1.639517 c 0,0.719216 -2.396016,0.719217 -2.396016,0 l 0,-1.049214 c -0.0065,-0.793254 2.387457,-1.393335 2.396016,-0.590303 z"
         style="fill:#ffffff;fill-opacity:1;fill-rule:nonzero;stroke:none"
         sodipodi:nodetypes="csscc" />
      <path
         inkscape:connector-curvature="0"
         id="path4207-5-0-5"
         d="m 72.603179,-14.906816 0,4.461741 c 0,0.7192154 -2.396016,0.7192158 -2.396016,0 l 0,-3.871437 c -0.0065,-0.793254 2.387457,-1.393335 2.396016,-0.590304 z"
         style="fill:#e62713;fill-opacity:1;fill-rule:nonzero;stroke:none"
         sodipodi:nodetypes="csscc" />
      <path
         inkscape:connector-curvature="0"
         id="path4207-5-0"
         d="m 76.285767,-17.675584 0,7.283962 c 0,0.7192164 -2.396016,0.7192161 -2.396016,0 l 0,-6.693659 c -0.0065,-0.793254 2.387457,-1.393334 2.396016,-0.590303 z"
         style="fill:#e62713;fill-opacity:1;fill-rule:nonzero;stroke:none"
         sodipodi:nodetypes="csscc" />
    </g>
  </g>
</svg>
