<?xml version="1.0" encoding="UTF-8" standalone="no"?>
<!-- Created with Inkscape (http://www.inkscape.org/) -->

<svg
   xmlns:dc="http://purl.org/dc/elements/1.1/"
   xmlns:cc="http://creativecommons.org/ns#"
   xmlns:rdf="http://www.w3.org/1999/02/22-rdf-syntax-ns#"
   xmlns:svg="http://www.w3.org/2000/svg"
   xmlns="http://www.w3.org/2000/svg"
   xmlns:sodipodi="http://sodipodi.sourceforge.net/DTD/sodipodi-0.dtd"
   xmlns:inkscape="http://www.inkscape.org/namespaces/inkscape"
   id="svg2"
   version="1.1"
   inkscape:version="0.91 r13725"
   xml:space="preserve"
   width="206.21297"
   height="76.550003"
   viewBox="0 0 206.21297 76.550003"
   sodipodi:docname="ATS_logo.svg"><metadata
     id="metadata8"><rdf:RDF><cc:Work
         rdf:about=""><dc:format>image/svg+xml</dc:format><dc:type
           rdf:resource="http://purl.org/dc/dcmitype/StillImage" /><dc:title></dc:title></cc:Work></rdf:RDF></metadata><defs
     id="defs6"><clipPath
       clipPathUnits="userSpaceOnUse"
       id="clipPath16"><path
         d="M 0,842 595,842 595,0 0,0 0,842 Z"
         id="path18"
         inkscape:connector-curvature="0" /></clipPath><clipPath
       clipPathUnits="userSpaceOnUse"
       id="clipPath44"><path
         d="M 0,842 595,842 595,0 0,0 0,842 Z"
         id="path46"
         inkscape:connector-curvature="0" /></clipPath></defs><sodipodi:namedview
     pagecolor="#ffffff"
     bordercolor="#666666"
     borderopacity="1"
     objecttolerance="10"
     gridtolerance="10"
     guidetolerance="10"
     inkscape:pageopacity="0"
     inkscape:pageshadow="2"
     inkscape:window-width="1351"
     inkscape:window-height="825"
     id="namedview4"
     showgrid="false"
     fit-margin-top="0.1"
     fit-margin-right="0.1"
     fit-margin-bottom="0.1"
     fit-margin-left="0.1"
     inkscape:zoom="1.2684253"
     inkscape:cx="252.64338"
     inkscape:cy="67.671101"
     inkscape:window-x="0"
     inkscape:window-y="0"
     inkscape:window-maximized="0"
     inkscape:current-layer="g10" /><g
     id="g10"
     inkscape:groupmode="layer"
     inkscape:label="ATS_logo_Pantone"
     transform="matrix(1.25,0,0,-1.25,-106.6825,874.6575)"><path
       d="m 249.08,641.063 1.008,0 0,5.563 -1.008,0 0,-5.563 z m -4.441,2.713 1.385,0 c 0.413,0 0.664,-0.126 0.791,-0.24 0.24,-0.206 0.286,-0.469 0.286,-0.721 0,-0.401 -0.16,-0.595 -0.241,-0.675 -0.137,-0.149 -0.401,-0.275 -0.8,-0.275 l -1.421,0 0,1.911 z m 0,0.802 0,2.048 -1.029,0 0,-5.563 2.381,0 c 0.824,0 1.327,0.241 1.613,0.504 0.31,0.275 0.55,0.722 0.55,1.248 0,0.503 -0.206,0.961 -0.572,1.27 -0.538,0.446 -1.282,0.493 -1.764,0.493 l -1.179,0 z m -7.995,-3.515 0.915,0 0,4.212 1.602,-2.907 0.343,0 1.602,2.907 0,-4.212 1.007,0 0,5.563 -1.132,0 -1.533,-2.85 -1.58,2.85 -1.224,0 0,-5.563 z m -4.551,3.274 0,0.126 c 0,0.641 0.193,0.996 0.365,1.179 0.148,0.171 0.413,0.366 0.836,0.366 0.297,0 0.572,-0.069 0.789,-0.275 0.366,-0.343 0.366,-0.778 0.366,-1.167 l 0,-0.229 -2.356,0 z m 0,-0.733 3.432,0 0,0.252 c 0,0.894 -0.034,1.625 -0.583,2.221 -0.366,0.389 -0.928,0.663 -1.636,0.663 -0.767,0 -1.34,-0.343 -1.695,-0.732 -0.583,-0.663 -0.641,-1.522 -0.641,-2.071 0,-0.63 0.092,-1.545 0.664,-2.187 0.378,-0.423 1.031,-0.802 1.957,-0.802 0.412,0 0.847,0.056 1.306,0.23 0.24,0.092 0.502,0.229 0.675,0.321 l -0.321,0.652 c -0.183,-0.091 -0.39,-0.183 -0.641,-0.263 -0.309,-0.092 -0.549,-0.138 -0.87,-0.138 -0.526,0 -0.995,0.172 -1.259,0.459 -0.182,0.194 -0.388,0.583 -0.388,1.247 l 0,0.148 z m -6.03,3.022 0,-0.801 1.74,0 0,-4.762 1.009,0 0,4.762 1.739,0 0,0.801 -4.488,0 z m -0.625,-4.475 c -0.184,-0.091 -0.39,-0.183 -0.641,-0.263 -0.309,-0.092 -0.561,-0.138 -0.87,-0.138 -0.195,0 -0.755,0.035 -1.121,0.378 -0.412,0.389 -0.434,0.916 -0.434,1.385 l 0,0.744 c 0,0.423 -0.036,1.133 0.537,1.534 0.206,0.137 0.48,0.217 0.801,0.217 0.378,0 0.664,-0.103 0.836,-0.275 0.228,-0.228 0.228,-0.561 0.193,-0.881 l 0.928,0.081 c 0.172,0.594 -0.045,1.201 -0.619,1.51 -0.354,0.194 -0.869,0.297 -1.246,0.297 -0.55,0 -1.179,-0.149 -1.603,-0.469 -0.824,-0.617 -0.95,-1.705 -0.95,-2.46 0,-0.481 0.069,-1.602 0.881,-2.312 0.527,-0.46 1.168,-0.551 1.649,-0.551 0.514,0 0.915,0.08 1.304,0.23 0.241,0.092 0.503,0.229 0.676,0.321 l -0.321,0.652 z m -5.375,4.475 -1.076,0 -2.77,-4.292 0,4.292 -1.007,0 0,-5.563 1.076,0 2.769,4.293 0,-4.293 1.008,0 0,5.563 z m -6.245,-4.475 c -0.184,-0.091 -0.39,-0.183 -0.643,-0.263 -0.307,-0.092 -0.559,-0.138 -0.868,-0.138 -0.195,0 -0.755,0.035 -1.122,0.378 -0.413,0.389 -0.435,0.916 -0.435,1.385 l 0,0.744 c 0,0.423 -0.034,1.133 0.538,1.534 0.206,0.137 0.48,0.217 0.8,0.217 0.378,0 0.665,-0.103 0.836,-0.275 0.229,-0.228 0.229,-0.561 0.195,-0.881 l 0.926,0.081 c 0.172,0.594 -0.045,1.201 -0.617,1.51 -0.354,0.194 -0.87,0.297 -1.248,0.297 -0.549,0 -1.179,-0.149 -1.601,-0.469 -0.825,-0.617 -0.951,-1.705 -0.951,-2.46 0,-0.481 0.068,-1.602 0.882,-2.312 0.526,-0.46 1.167,-0.551 1.647,-0.551 0.516,0 0.917,0.08 1.305,0.23 0.241,0.092 0.504,0.229 0.675,0.321 l -0.319,0.652 z m -12.236,6.833 c -0.045,-0.138 -0.057,-0.252 -0.057,-0.39 0,-0.32 0.092,-0.651 0.492,-0.881 0.297,-0.171 0.744,-0.229 1.064,-0.229 0.321,0 0.767,0.058 1.065,0.229 0.401,0.23 0.491,0.561 0.491,0.881 0,0.138 -0.011,0.252 -0.056,0.39 l -0.801,-0.069 c 0.068,-0.251 -0.012,-0.481 -0.172,-0.606 -0.137,-0.104 -0.355,-0.138 -0.527,-0.138 -0.172,0 -0.39,0.034 -0.526,0.138 -0.16,0.125 -0.241,0.355 -0.171,0.606 l -0.802,0.069 z m 3.925,-2.358 -1.076,0 -2.769,-4.292 0,4.292 -1.007,0 0,-5.563 1.075,0 2.77,4.293 0,-4.293 1.007,0 0,5.563 z m -7.16,-3.033 c 0,-0.526 0,-1.111 -0.401,-1.533 -0.159,-0.172 -0.458,-0.378 -0.962,-0.378 -0.504,0 -0.8,0.206 -0.961,0.378 -0.4,0.422 -0.4,1.007 -0.4,1.533 l 0,0.504 c 0,0.526 0,1.11 0.4,1.534 0.161,0.171 0.457,0.377 0.961,0.377 0.504,0 0.803,-0.206 0.962,-0.377 0.401,-0.424 0.401,-1.008 0.401,-1.534 l 0,-0.504 z m -1.363,3.147 c -0.824,0 -1.43,-0.331 -1.796,-0.72 -0.571,-0.619 -0.687,-1.5 -0.687,-2.175 0,-0.676 0.116,-1.556 0.687,-2.174 0.366,-0.39 0.972,-0.723 1.796,-0.723 0.825,0 1.432,0.333 1.798,0.723 0.572,0.618 0.686,1.498 0.686,2.174 0,0.675 -0.114,1.556 -0.686,2.175 -0.366,0.389 -0.973,0.72 -1.798,0.72 m -6.839,-3.193 1.43,0 c 0.297,0 0.538,-0.08 0.697,-0.206 0.218,-0.172 0.288,-0.411 0.288,-0.686 0,-0.321 -0.149,-0.527 -0.265,-0.63 -0.17,-0.149 -0.457,-0.229 -0.778,-0.229 l -1.372,0 0,1.751 z m 0,2.347 1.338,0 c 0.16,0 0.435,-0.012 0.664,-0.184 0.229,-0.171 0.287,-0.389 0.287,-0.617 0,-0.218 -0.047,-0.435 -0.253,-0.607 -0.229,-0.194 -0.514,-0.206 -0.755,-0.206 l -1.281,0 0,1.614 z m -1.008,-4.831 2.519,0 c 0.41,0 1.018,0.058 1.475,0.47 0.332,0.298 0.493,0.71 0.493,1.133 0,0.343 -0.114,0.664 -0.309,0.881 -0.184,0.206 -0.469,0.367 -0.733,0.436 l 0,0.034 c 0.206,0.046 0.412,0.16 0.607,0.435 0.171,0.252 0.251,0.549 0.251,0.812 0,0.424 -0.183,0.744 -0.412,0.95 -0.424,0.377 -1.018,0.412 -1.327,0.412 l -2.564,0 0,-5.563 z m -2.309,2.53 c 0,-0.526 0,-1.111 -0.399,-1.533 -0.161,-0.172 -0.458,-0.378 -0.962,-0.378 -0.504,0 -0.802,0.206 -0.962,0.378 -0.401,0.422 -0.401,1.007 -0.401,1.533 l 0,0.504 c 0,0.526 0,1.11 0.401,1.534 0.16,0.171 0.458,0.377 0.962,0.377 0.504,0 0.801,-0.206 0.962,-0.377 0.399,-0.424 0.399,-1.008 0.399,-1.534 l 0,-0.504 z m -1.361,3.147 c -0.824,0 -1.432,-0.331 -1.798,-0.72 -0.571,-0.619 -0.686,-1.5 -0.686,-2.175 0,-0.676 0.115,-1.556 0.686,-2.174 0.366,-0.39 0.974,-0.723 1.798,-0.723 0.825,0 1.43,0.333 1.796,0.723 0.573,0.618 0.688,1.498 0.688,2.174 0,0.675 -0.115,1.556 -0.688,2.175 -0.366,0.389 -0.971,0.72 -1.796,0.72 m -6.417,-0.114 0,-5.563 1.007,0 0,4.762 2.564,0 0,0.801 -3.571,0 z m -4.803,-1.259 c 0.126,0.149 0.274,0.298 0.469,0.412 0.298,0.183 0.561,0.229 0.778,0.229 0.332,0 0.699,-0.161 0.905,-0.401 0.343,-0.4 0.343,-1.052 0.343,-1.556 l 0,-0.367 c 0,-0.48 -0.023,-1.121 -0.309,-1.533 -0.172,-0.24 -0.493,-0.469 -1.065,-0.469 -0.332,0 -0.629,0.126 -0.686,0.149 -0.149,0.057 -0.309,0.137 -0.435,0.217 l 0,3.319 z m 0,-6.801 0,2.738 c 0.206,-0.114 0.355,-0.171 0.561,-0.228 0.252,-0.072 0.503,-0.128 0.869,-0.128 0.55,0 1.053,0.173 1.465,0.597 0.63,0.641 0.721,1.499 0.721,2.3 0,0.572 -0.023,1.384 -0.469,2.037 -0.423,0.63 -1.052,0.858 -1.602,0.858 -0.309,0 -0.675,-0.079 -0.95,-0.205 -0.252,-0.115 -0.504,-0.309 -0.687,-0.481 l 0,0.572 -0.915,0 0,-8.06 1.007,0 z m -3.316,5.027 c 0,-0.526 0,-1.111 -0.4,-1.533 -0.16,-0.172 -0.458,-0.378 -0.962,-0.378 -0.503,0 -0.801,0.206 -0.962,0.378 -0.399,0.422 -0.399,1.007 -0.399,1.533 l 0,0.504 c 0,0.526 0,1.11 0.399,1.534 0.161,0.171 0.459,0.377 0.962,0.377 0.504,0 0.802,-0.206 0.962,-0.377 0.4,-0.424 0.4,-1.008 0.4,-1.534 l 0,-0.504 z m -1.362,3.147 c -0.824,0 -1.43,-0.331 -1.797,-0.72 -0.571,-0.619 -0.687,-1.5 -0.687,-2.175 0,-0.676 0.116,-1.556 0.687,-2.174 0.367,-0.39 0.973,-0.723 1.797,-0.723 0.825,0 1.431,0.333 1.797,0.723 0.572,0.618 0.687,1.498 0.687,2.174 0,0.675 -0.115,1.556 -0.687,2.175 -0.366,0.389 -0.972,0.72 -1.797,0.72 m -7.389,-0.114 0,-0.801 1.739,0 0,-4.762 1.007,0 0,4.762 1.74,0 0,0.801 -4.486,0 z m -6.971,-1.259 c 0.126,0.149 0.275,0.298 0.47,0.412 0.297,0.183 0.561,0.229 0.778,0.229 0.332,0 0.698,-0.161 0.904,-0.401 0.344,-0.4 0.344,-1.052 0.344,-1.556 l 0,-0.367 c 0,-0.48 -0.024,-1.121 -0.309,-1.533 -0.172,-0.24 -0.493,-0.469 -1.065,-0.469 -0.332,0 -0.629,0.126 -0.686,0.149 -0.149,0.057 -0.31,0.137 -0.436,0.217 l 0,3.319 z m 0,-6.801 0,2.738 c 0.206,-0.114 0.355,-0.171 0.561,-0.228 0.252,-0.072 0.504,-0.128 0.87,-0.128 0.55,0 1.052,0.173 1.465,0.597 0.629,0.641 0.721,1.499 0.721,2.3 0,0.572 -0.023,1.384 -0.469,2.037 -0.424,0.63 -1.053,0.858 -1.602,0.858 -0.309,0 -0.676,-0.079 -0.95,-0.205 -0.252,-0.115 -0.504,-0.309 -0.687,-0.481 l 0,0.572 -0.916,0 0,-8.06 1.007,0 z m -3.315,5.027 c 0,-0.526 0,-1.111 -0.401,-1.533 -0.16,-0.172 -0.457,-0.378 -0.961,-0.378 -0.504,0 -0.802,0.206 -0.962,0.378 -0.4,0.422 -0.4,1.007 -0.4,1.533 l 0,0.504 c 0,0.526 0,1.11 0.4,1.534 0.16,0.171 0.458,0.377 0.962,0.377 0.504,0 0.801,-0.206 0.961,-0.377 0.401,-0.424 0.401,-1.008 0.401,-1.534 l 0,-0.504 z m -1.362,3.147 c -0.824,0 -1.43,-0.331 -1.797,-0.72 -0.572,-0.619 -0.687,-1.5 -0.687,-2.175 0,-0.676 0.115,-1.556 0.687,-2.174 0.367,-0.39 0.973,-0.723 1.797,-0.723 0.824,0 1.431,0.333 1.797,0.723 0.572,0.618 0.687,1.498 0.687,2.174 0,0.675 -0.115,1.556 -0.687,2.175 -0.366,0.389 -0.973,0.72 -1.797,0.72 m -7.39,-0.114 0,-0.801 1.74,0 0,-4.762 1.007,0 0,4.762 1.74,0 0,0.801 -4.487,0 z m -1.656,-4.166 c -0.137,-0.229 -0.297,-0.366 -0.503,-0.503 -0.275,-0.184 -0.481,-0.252 -0.824,-0.252 -0.276,0 -0.538,0.045 -0.767,0.24 -0.217,0.183 -0.287,0.401 -0.287,0.664 0,0.389 0.161,0.629 0.31,0.755 0.183,0.16 0.515,0.286 1.155,0.286 l 0.916,0 0,-1.19 z m 0.092,-1.397 0.916,0 0,3.595 c 0,0.549 0.011,1.121 -0.435,1.568 -0.481,0.481 -1.374,0.514 -1.649,0.514 -0.366,0 -1.167,-0.033 -1.67,-0.365 -0.309,-0.207 -0.585,-0.562 -0.436,-1.168 l 0.916,-0.046 c 0,0.275 0.057,0.504 0.309,0.664 0.241,0.16 0.63,0.183 0.824,0.183 0.217,0 0.641,-0.023 0.893,-0.252 0.217,-0.206 0.24,-0.435 0.24,-0.698 l 0,-0.721 -0.87,0 c -1.236,0 -1.762,-0.298 -1.991,-0.469 -0.275,-0.218 -0.595,-0.63 -0.595,-1.294 0,-0.629 0.298,-1.007 0.515,-1.201 0.412,-0.369 0.881,-0.425 1.327,-0.425 0.413,0 0.698,0.045 1.042,0.23 0.32,0.172 0.492,0.378 0.618,0.572 l 0.046,0 0,-0.687 z m -8.042,4.304 c 0.126,0.149 0.275,0.298 0.469,0.412 0.298,0.183 0.56,0.229 0.778,0.229 0.332,0 0.698,-0.161 0.904,-0.401 0.343,-0.4 0.343,-1.052 0.343,-1.556 l 0,-0.367 c 0,-0.48 -0.022,-1.121 -0.308,-1.533 -0.173,-0.24 -0.493,-0.469 -1.065,-0.469 -0.332,0 -0.63,0.126 -0.687,0.149 -0.148,0.057 -0.308,0.137 -0.434,0.217 l 0,3.319 z m 0,-6.801 0,2.738 c 0.206,-0.114 0.355,-0.171 0.561,-0.228 0.251,-0.072 0.503,-0.128 0.869,-0.128 0.55,0 1.053,0.173 1.465,0.597 0.63,0.641 0.721,1.499 0.721,2.3 0,0.572 -0.023,1.384 -0.469,2.037 -0.423,0.63 -1.053,0.858 -1.602,0.858 -0.309,0 -0.676,-0.079 -0.95,-0.205 -0.253,-0.115 -0.504,-0.309 -0.687,-0.481 l 0,0.572 -0.915,0 0,-8.06 1.007,0 z m -6.223,8.06 0,-0.801 1.74,0 0,-4.762 1.007,0 0,4.762 1.739,0 0,0.801 -4.486,0 z m -0.625,-4.475 c -0.184,-0.091 -0.39,-0.183 -0.642,-0.263 -0.309,-0.092 -0.56,-0.138 -0.869,-0.138 -0.195,0 -0.756,0.035 -1.122,0.378 -0.412,0.389 -0.435,0.916 -0.435,1.385 l 0,0.744 c 0,0.423 -0.035,1.133 0.538,1.534 0.206,0.137 0.481,0.217 0.801,0.217 0.378,0 0.664,-0.103 0.835,-0.275 0.229,-0.228 0.229,-0.561 0.195,-0.881 l 0.927,0.081 c 0.172,0.594 -0.046,1.201 -0.618,1.51 -0.355,0.194 -0.87,0.297 -1.247,0.297 -0.55,0 -1.179,-0.149 -1.603,-0.469 -0.824,-0.617 -0.95,-1.705 -0.95,-2.46 0,-0.481 0.069,-1.602 0.881,-2.312 0.527,-0.46 1.168,-0.551 1.649,-0.551 0.514,0 0.915,0.08 1.304,0.23 0.241,0.092 0.504,0.229 0.676,0.321 l -0.32,0.652 z m -5.376,4.475 -1.077,0 -2.769,-4.292 0,4.292 -1.008,0 0,-5.563 1.076,0 2.771,4.293 0,-4.293 1.007,0 0,5.563 z m -6.349,0 -1.007,0 0,-2.254 -2.518,0 0,2.254 -1.007,0 0,-5.563 1.007,0 0,2.507 2.518,0 0,-2.507 1.007,0 0,5.563 z m -6.028,0 -1.076,0 -2.77,-4.292 0,4.292 -1.007,0 0,-5.563 1.076,0 2.77,4.293 0,-4.293 1.007,0 0,5.563 z m -11.819,-5.563 0.915,0 0,4.212 1.603,-2.907 0.343,0 1.602,2.907 0,-4.212 1.007,0 0,5.563 -1.132,0 -1.535,-2.85 -1.579,2.85 -1.224,0 0,-5.563 z m -2.64,4.762 0,-3.96 -2.392,0 c 0.24,0.321 0.48,0.755 0.641,1.304 0.114,0.401 0.206,0.962 0.24,1.981 l 0.022,0.675 1.489,0 z m 1.007,0.801 -3.342,0 -0.023,-1.156 c -0.023,-0.972 -0.092,-1.476 -0.148,-1.728 -0.173,-0.858 -0.562,-1.465 -0.893,-1.877 l -0.447,0 0,-2.302 0.973,0 0,1.5 3.639,0 0,-1.5 0.973,0 0,2.302 -0.732,0 0,4.761 z m -6.452,-4.166 c -0.137,-0.229 -0.297,-0.366 -0.503,-0.503 -0.275,-0.184 -0.481,-0.252 -0.825,-0.252 -0.274,0 -0.537,0.045 -0.766,0.24 -0.217,0.183 -0.286,0.401 -0.286,0.664 0,0.389 0.16,0.629 0.309,0.755 0.183,0.16 0.515,0.286 1.156,0.286 l 0.915,0 0,-1.19 z m 0.092,-1.397 0.916,0 0,3.595 c 0,0.549 0.011,1.121 -0.435,1.568 -0.481,0.481 -1.374,0.514 -1.649,0.514 -0.366,0 -1.167,-0.033 -1.67,-0.365 -0.309,-0.207 -0.585,-0.562 -0.435,-1.168 l 0.915,-0.046 c 0,0.275 0.057,0.504 0.309,0.664 0.241,0.16 0.629,0.183 0.824,0.183 0.218,0 0.641,-0.023 0.893,-0.252 0.218,-0.206 0.24,-0.435 0.24,-0.698 l 0,-0.721 -0.869,0 c -1.237,0 -1.763,-0.298 -1.992,-0.469 -0.274,-0.218 -0.595,-0.63 -0.595,-1.294 0,-0.629 0.298,-1.007 0.515,-1.201 0.412,-0.369 0.881,-0.425 1.327,-0.425 0.413,0 0.699,0.045 1.041,0.23 0.321,0.172 0.494,0.378 0.619,0.572 l 0.046,0 0,-0.687 z"
       style="fill:#003391;fill-opacity:1;fill-rule:nonzero;stroke:none"
       id="path22"
       inkscape:connector-curvature="0" /><path
       d="m 175.392,691.416 c -2.741,0 4.162,8.23 6.905,8.23 l 15.893,0 c 2.742,0 -4.165,-8.23 -6.906,-8.23 l -15.892,0 z"
       style="fill:#c91a22;fill-opacity:1;fill-rule:evenodd;stroke:none"
       id="path24"
       inkscape:connector-curvature="0" /><path
       d="m 142.629,699.646 30.48,0 0,-36.785 c 0,-3.209 -9.631,-3.211 -9.631,0 l 0,28.555 -20.849,0 c -2.743,0 -2.743,8.23 0,8.23"
       style="fill:#003391;fill-opacity:1;fill-rule:evenodd;stroke:none"
       id="path26"
       inkscape:connector-curvature="0" /><path
       d="m 198.886,691.895 c 0,4.236 4.48,7.751 8.653,7.751 l 40.642,0 c 2.741,0 2.74,-8.23 0,-8.23 l -37.091,0 c -1.486,0 -2.573,-0.583 -2.573,-2.73 l 0,-16.354 c 0,-1.653 0.764,-3.014 2.423,-3.014 l 37.241,0 c 2.741,0 2.74,-8.23 0,-8.23 l -40.642,0 c -4.174,0 -8.653,3.519 -8.653,7.752 l 0,23.055 z"
       style="fill:#003391;fill-opacity:1;fill-rule:evenodd;stroke:none"
       id="path28"
       inkscape:connector-curvature="0" /><path
       d="m 89.636,699.646 40.081,0 c 4.454,0 8.438,-3.523 8.438,-7.751 l 0,-23.055 c 0,-4.161 -4.176,-7.752 -8.438,-7.752 l -35.234,0 c -4.033,0 -9.057,2.663 -9.057,7.342 l 0,9.102 c 0,4.277 5.031,7.565 9.057,7.565 l 34.042,0 0,3.589 c 0,1.674 -0.891,2.73 -2.459,2.73 l -36.43,0 c -2.742,0 -2.742,8.23 0,8.23 m 36.43,-30.328 c 1.572,0 2.459,1.681 2.459,3.014 l 0,4.535 -31.008,0 c -1.677,0 -2.46,-0.901 -2.46,-2.11 l 0,-3.328 c 0,-1.078 0.902,-2.111 2.46,-2.111 l 28.549,0 z"
       style="fill:#003391;fill-opacity:1;fill-rule:evenodd;stroke:none"
       id="path30"
       inkscape:connector-curvature="0" /></g></svg>