<?xml version="1.0" encoding="UTF-8" standalone="no"?><svg
   xmlns:dc="http://purl.org/dc/elements/1.1/"
   xmlns:cc="http://creativecommons.org/ns#"
   xmlns:rdf="http://www.w3.org/1999/02/22-rdf-syntax-ns#"
   xmlns:svg="http://www.w3.org/2000/svg"
   xmlns="http://www.w3.org/2000/svg"
   xmlns:sodipodi="http://sodipodi.sourceforge.net/DTD/sodipodi-0.dtd"
   xmlns:inkscape="http://www.inkscape.org/namespaces/inkscape" width="24" height="23" x="0" y="0" style="opacity: 1;" class="stencil--easier-to-select"><defs></defs><rect x="0" y="0" width="24" height="23" fill="transparent" class="stencil__selection-helper"></rect><path d="M23.999999999999996 11.117556071152357C23.999999999999993 11.331013147718483 23.91623036649214 11.51482340809487 23.748691099476435 11.668986852281517 23.748691099476435 11.668986852281517 12.547494390426326 22.76875483372003 12.547494390426326 22.76875483372003 12.39192221391174 22.922918277906675 12.20643231114435 23 11.991024682124156 23 11.775617053103964 23 11.596110695587132 22.922918277906675 11.45250560957367 22.76875483372003 11.45250560957367 22.76875483372003 0.25130890052356003 11.668986852281517 0.25130890052356003 11.668986852281517 0.08376963350785327 11.51482340809487 0 11.331013147718483 0 11.117556071152357 0 10.904098994586231 0.08376963350785327 10.720288734209849 0.25130890052356003 10.566125290023201 0.25130890052356003 10.566125290023201 1.4360508601346296 9.374323279195668 1.4360508601346296 9.374323279195668 1.6035901271503366 9.220159835009024 1.7890800299177254 9.143078112915703 1.9925205684367988 9.143078112915703 2.195961106955872 9.143078112915703 2.3814510097232615 9.220159835009024 2.5489902767389676 9.374323279195668 2.5489902767389676 9.374323279195668 11.991024682124156 18.748646558391336 11.991024682124156 18.748646558391336 11.991024682124156 18.748646558391336 21.45100972326103 9.374323279195668 21.45100972326103 9.374323279195668 21.606581899775612 9.220159835009024 21.792071802543 9.143078112915703 22.007479431563198 9.143078112915703 22.22288706058339 9.143078112915703 22.402393418100218 9.220159835009024 22.545998504113683 9.374323279195668 22.545998504113683 9.374323279195668 23.748691099476435 10.566125290023201 23.748691099476435 10.566125290023201 23.91623036649214 10.732147460685741 23.999999999999993 10.915957721062128 23.999999999999996 11.117556071152357 23.999999999999996 11.117556071152357 23.999999999999996 11.117556071152357 23.999999999999996 11.117556071152357M23.999999999999996 1.9744779582366583C23.999999999999993 2.1760763083268877 23.91623036649214 2.3598865687032724 23.748691099476435 2.525908739365816 23.748691099476435 2.525908739365816 12.547494390426326 13.625676720804332 12.547494390426326 13.625676720804332 12.39192221391174 13.779840164990972 12.20643231114435 13.856921887084297 11.991024682124156 13.856921887084297 11.775617053103964 13.856921887084297 11.596110695587132 13.779840164990972 11.45250560957367 13.625676720804332 11.45250560957367 13.625676720804332 0.25130890052356003 2.525908739365816 0.25130890052356003 2.525908739365816 0.08376963350785327 2.3598865687032724 0 2.1760763083268877 0 1.9744779582366583 0 1.7728796081464289 0.08376963350785327 1.5890693477700424 0.25130890052356003 1.4230471771075006 0.25130890052356003 1.4230471771075006 1.4360508601346296 0.23124516627996883 1.4360508601346296 0.23124516627996883 1.6035901271503366 0.07708172209332176 1.7890800299177254 0 1.9925205684367988 0 2.195961106955872 0 2.3814510097232615 0.07708172209332176 2.5489902767389676 0.23124516627996883 2.5489902767389676 0.23124516627996883 11.991024682124156 9.587780355761794 11.991024682124156 9.587780355761794 11.991024682124156 9.587780355761794 21.45100972326103 0.23124516627996883 21.45100972326103 0.23124516627996883 21.606581899775612 0.07708172209332176 21.792071802543 0 22.007479431563198 0 22.22288706058339 0 22.402393418100218 0.07708172209332176 22.545998504113683 0.23124516627996883 22.545998504113683 0.23124516627996883 23.748691099476435 1.4230471771075006 23.748691099476435 1.4230471771075006 23.91623036649214 1.577210621294146 23.999999999999993 1.7610208816705306 23.999999999999996 1.9744779582366583 23.999999999999996 1.9744779582366583 23.999999999999996 1.9744779582366583 23.999999999999996 1.9744779582366583" stroke-width="0.5" stroke="rgb(122,122,122)" stroke-dasharray="none" fill="rgb(0,0,0)" fill-rule="evenOdd"></path></svg>